PathFileType	4	(X/Y/Z)	C:\Users\°ÂÌØÂü\Desktop\20201223\Trimmed_Trimmed_Trimmed_Trimmed_bx_n_0_501.trc
DataRate	CameraRate	NumFrames	NumMarkers	Units	OrigDataRate	OrigDataStartFrame	OrigNumFrames
50.00	50.00	       5	43	mm	50.00	602	       802
Frame#	Time	Top.Head			R.Acromium			L.Acromium			Sternum			R.ASIS			L.ASIS			V.Sacral			R.Thigh.Upper			R.Thigh.Front			R.Thigh.Rear			R.Knee.Lat			R.Knee.Med			R.Shank.Upper			R.Shank.Front			R.Shank.Rear			R.Ankle.Lat			R.Midfoot.Lat			R.Toe.Lat			R.Toe.Tip			R.Toe.Med			R.Ankle.Med			R.Midfoot.Sup			R.Heel			L.Thigh.Upper			L.Thigh.Front			L.Thigh.Rear			L.Knee.Lat			L.Knee.Med			L.Shank.Upper			L.Shank.Front			L.Shank.Rear			L.Ankle.Lat			L.Midfoot.Lat			L.Toe.Lat			L.Toe.Tip			L.Toe.Med			L.Ankle.Med			L.Midfoot.Sup			L.Heel			origin1 front left			origin2 front right			origin 3 back right			origin 4 back leftt			
		X1	Y1	Z1	X2	Y2	Z2	X3	Y3	Z3	X4	Y4	Z4	X5	Y5	Z5	X6	Y6	Z6	X7	Y7	Z7	X8	Y8	Z8	X9	Y9	Z9	X10	Y10	Z10	X11	Y11	Z11	X12	Y12	Z12	X13	Y13	Z13	X14	Y14	Z14	X15	Y15	Z15	X16	Y16	Z16	X17	Y17	Z17	X18	Y18	Z18	X19	Y19	Z19	X20	Y20	Z20	X21	Y21	Z21	X22	Y22	Z22	X23	Y23	Z23	X24	Y24	Z24	X25	Y25	Z25	X26	Y26	Z26	X27	Y27	Z27	X28	Y28	Z28	X29	Y29	Z29	X30	Y30	Z30	X31	Y31	Z31	X32	Y32	Z32	X33	Y33	Z33	X34	Y34	Z34	X35	Y35	Z35	X36	Y36	Z36	X37	Y37	Z37	X38	Y38	Z38	X39	Y39	Z39	X40	Y40	Z40	X41	Y41	Z41	X42	Y42	Z42	X43	Y43	Z43	

602	12.020	-671.45892	253.83383	1827.62341	-607.33752	71.20754	1530.61670	-613.99689	437.35733	1523.35864	-508.39587	253.97559	1359.97668	-520.73578	129.43571	1036.97449	-494.65900	350.81061	1035.45313	-709.94409	252.19241	1062.83899	-610.50177	79.34205	833.54102	-522.30743	128.33052	797.22485	-630.70142	95.52103	719.34521	-654.72021	116.02557	600.53015	-631.42719	222.32446	558.01636	-684.07349	116.16707	539.01434	-606.14032	165.72224	523.56805	-693.88477	108.52960	488.16360	-689.88641	139.71677	213.83493	-616.27991	79.01753	167.68005	-570.95819	57.31127	164.55817	-494.44815	96.92993	160.74812	-535.91553	148.87128	162.17328	-640.52826	217.35703	219.54909	-598.06091	189.48218	169.52356	-725.90479	205.69926	169.01253	-590.77332	438.93835	856.57794	-511.72205	385.87836	813.81793	-618.89636	430.36163	740.85010	-643.00763	412.83182	605.20453	-609.55847	279.48456	581.30817	-661.28839	416.28595	559.35028	-603.68195	361.80096	532.86261	-714.67303	421.17828	497.05313	-675.22321	420.05441	216.06465	-579.19348	465.15826	165.31068	-541.36725	475.68637	158.95184	-483.97925	420.91461	167.70497	-524.59900	381.95743	176.31612	-647.05139	327.12262	208.70544	-596.23993	345.34387	169.65726	-735.64514	353.57889	162.18288	-443.76727	448.57455	146.75604	-450.31021	74.95104	143.45325	-806.43530	82.48887	141.16862	-799.99902	456.36993	144.69412	
603	12.040	-671.03986	254.02849	1827.68042	-607.16315	71.32101	1530.71008	-613.70490	437.48788	1523.38086	-508.27527	254.03152	1359.98523	-520.83313	129.44743	1036.92102	-494.65182	350.83282	1035.38879	-709.99915	252.26720	1062.93274	-610.66461	79.35425	833.57709	-522.46472	128.29404	797.22400	-630.82831	95.57225	719.32416	-654.81232	116.00814	600.53918	-631.56042	222.36273	557.97247	-684.20361	116.17510	539.01727	-606.19208	165.73868	523.62317	-693.99701	108.55080	488.19757	-689.89240	139.70969	213.83806	-616.27161	79.01141	167.67426	-570.96222	57.31061	164.54468	-494.44485	96.92638	160.75352	-535.90887	148.87740	162.17383	-640.51672	217.33995	219.56201	-598.05029	189.49400	169.53497	-725.90399	205.70288	169.00850	-590.85748	438.95490	856.57697	-511.79459	385.89178	813.78522	-618.95648	430.33282	740.81244	-643.09515	412.79666	605.19897	-610.10974	279.59274	581.28290	-661.29596	416.28506	559.33453	-603.76630	361.76181	532.85168	-714.70844	421.22235	497.04279	-675.21710	420.06448	216.07170	-579.19318	465.16440	165.31548	-541.35846	475.68280	158.95827	-483.96405	420.91833	167.71498	-524.59027	381.94885	176.31334	-647.04523	327.11621	208.69940	-596.24158	345.34906	169.65416	-735.63300	353.58359	162.18201	-443.76889	448.58081	146.76753	-450.31064	74.95692	143.45956	-806.42914	82.48880	141.17523	-800.00977	456.37073	144.70399	
604	12.060	-670.58752	254.23451	1827.74243	-606.97107	71.43761	1530.80505	-613.39679	437.62393	1523.40149	-508.15265	254.09261	1359.97974	-520.95258	129.46405	1036.87146	-494.65717	350.84766	1035.32239	-710.07263	252.34827	1063.03992	-610.83966	79.37539	833.59863	-522.63794	128.25699	797.22723	-630.96869	95.62244	719.30243	-654.91156	115.99919	600.53790	-631.70819	222.40564	557.92883	-684.34039	116.17594	539.03094	-606.25610	165.75526	523.67267	-694.11078	108.57335	488.21857	-689.90051	139.70740	213.83855	-616.27161	79.00552	167.66812	-570.96570	57.30973	164.53629	-494.44034	96.92029	160.75774	-535.90222	148.88463	162.17316	-640.50488	217.31960	219.58060	-598.04071	189.50142	169.54111	-725.90308	205.70702	169.00475	-590.96155	438.98050	856.58636	-511.88300	385.91086	813.74957	-619.03717	430.29849	740.77039	-643.18677	412.76910	605.20056	-610.70337	279.73907	581.23364	-661.31396	416.27768	559.31610	-603.85480	361.73758	532.84332	-714.75745	421.26495	497.02783	-675.21625	420.07166	216.07373	-579.19232	465.17245	165.32060	-541.34882	475.67941	158.96393	-483.94958	420.91553	167.72568	-524.58282	381.94238	176.30905	-647.04401	327.10690	208.69417	-596.24188	345.35266	169.65245	-735.62402	353.58652	162.17963	-443.76974	448.58795	146.77838	-450.31085	74.96215	143.46144	-806.42444	82.49242	141.17767	-800.02191	456.37259	144.71500	
605	12.080	-670.10059	254.45340	1827.81030	-606.75769	71.55882	1530.89954	-613.07074	437.76367	1523.42175	-508.02637	254.16022	1359.95630	-521.09497	129.48456	1036.82996	-494.67935	350.85202	1035.25562	-710.16895	252.43396	1063.15735	-611.02991	79.40641	833.60236	-522.82825	128.22258	797.23236	-631.12531	95.67011	719.28088	-655.02191	116.00070	600.52679	-631.86737	222.45274	557.88776	-684.48053	116.17217	539.05396	-606.33868	165.77019	523.71320	-694.22430	108.59930	488.22159	-689.91064	139.70985	213.83705	-616.28064	78.99986	167.66191	-570.96967	57.30796	164.53358	-494.43506	96.91214	160.76035	-535.89594	148.89285	162.17151	-640.49371	217.29741	219.60365	-598.03369	189.50363	169.54179	-725.90216	205.71034	169.00148	-591.08405	439.01413	856.60388	-511.98795	385.93445	813.71252	-619.13660	430.26266	740.72858	-643.28119	412.75186	605.21051	-611.33978	279.92444	581.15967	-661.34576	416.26376	559.29468	-603.94666	361.73285	532.83551	-714.82178	421.30420	497.00674	-675.22137	420.07678	216.07114	-579.19098	465.18179	165.32565	-541.33850	475.67685	158.96848	-483.93698	420.90637	167.73582	-524.57623	381.93851	176.30374	-647.04730	327.09665	208.69077	-596.24084	345.35483	169.65154	-735.61920	353.58670	162.17604	-443.76944	448.59570	146.78658	-450.31177	74.96697	143.45767	-806.42212	82.50022	141.17656	-800.03418	456.37582	144.72540	
606	12.100	-669.57623	254.68509	1827.88586	-606.51990	71.68546	1530.99268	-612.72449	437.90512	1523.44397	-507.89520	254.23468	1359.91296	-521.26093	129.50665	1036.79968	-494.72339	350.84262	1035.19019	-710.29175	252.52229	1063.28101	-611.23907	79.44614	833.58881	-523.03644	128.19350	797.23755	-631.30078	95.71425	719.26080	-655.14783	116.01294	600.50879	-632.03357	222.50232	557.85028	-684.62073	116.16671	539.08368	-606.44470	165.78168	523.74286	-694.33716	108.63095	488.20380	-689.92206	139.71646	213.83476	-616.29810	78.99456	167.65594	-570.97479	57.30497	164.53632	-494.42932	96.90266	160.76131	-535.89020	148.90179	162.16913	-640.48376	217.27481	219.62970	-598.02991	189.50082	169.53784	-725.90149	205.71164	168.99884	-591.22327	439.05310	856.62585	-512.11041	385.96060	813.67615	-619.25293	430.22882	740.69159	-643.37897	412.74646	605.22900	-612.01971	280.14984	581.06030	-661.39478	416.24438	559.27008	-604.04071	361.74939	532.82635	-714.90253	421.33862	496.97827	-675.23291	420.08105	216.06496	-579.18933	465.19150	165.32996	-541.32751	475.67575	158.97166	-483.92700	420.89191	167.74411	-524.56995	381.93726	176.29797	-647.05396	327.08755	208.68988	-596.23859	345.35611	169.65053	-735.61853	353.58377	162.17145	-443.76791	448.60385	146.79070	-450.31439	74.97186	143.44768	-806.42242	82.51196	141.17290	-800.04504	456.38028	144.73360	
